# xmcd
#
# Track frame offsets:
#  150
#  30498
#  47646
#  67119
#  84192
#  96240
#  109188
#  129411
#  148134
#  166632
#  183930
#  199053
#
# Disc length: 3072 seconds
#
# Revision: 0
# Processed by: cddbd v1.5.1PL2 Copyright (c) Steve Scherf et al.
# Submitted via: Collectorz.com_Music_Collector 6.9
#
DISCID=9c0bfe0c
DTITLE=Calexico - Sxsw Emo's - March 13, 2003
DYEAR=1900
DGENRE=
TTITLE0=Gypsy's Curse
TTITLE1=Across The Wire
TTITLE2=Quattro
TTITLE3=El Picador
TTITLE4=Not Even Stevie Nicks
TTITLE5=Close Behind
TTITLE6=Black Heart
TTITLE7=Guero Canelo
TTITLE8=Sunken Waltz
TTITLE9=Alone Again Or
TTITLE10=Cancion Del Mariachi
TTITLE11=Love Will Tear Us Apart
EXTD=
EXTT0=
EXTT1=
EXTT2=
EXTT3=
EXTT4=
EXTT5=
EXTT6=
EXTT7=
EXTT8=
EXTT9=
EXTT10=
EXTT11=
PLAYORDER=
